<svg version="1.1" xmlns="http://www.w3.org/2000/svg" xmlns:xlink="http://www.w3.org/1999/xlink" width="676" height="388"><defs/><g><g transform="translate(-30,10) scale(1,1)"><path fill="none" stroke="#000000" d="M 40 0 L 696 0 L 696 368 L 40 368 L 40 0" stroke-miterlimit="10"/></g><g transform="translate(-30,10) scale(1,1)"><path fill="#ffffd8" stroke="none" d="M 40 0 L 40 22 L 155.0107421875 22 L 166.0107421875 11 L 166.0107421875 0 L 40 0"/></g><g transform="translate(-30,10) scale(1,1)"><path fill="none" stroke="#000000" d="M 40 0 L 40 22 L 155.0107421875 22 L 166.0107421875 11 L 166.0107421875 0 L 40 0 L 40 0" stroke-miterlimit="10"/></g><g transform="translate(-30,10) scale(1,1)"><g><path fill="none" stroke="none"/><text fill="#000000" stroke="none" font-family="Arial" font-size="13px" font-style="normal" font-weight="normal" text-decoration="none" x="110.97900390625" y="17.5">&#160;Login</text></g></g><g transform="translate(-30,10) scale(1,1)"><g><path fill="none" stroke="none"/><text fill="#000000" stroke="none" font-family="Arial" font-size="13px" font-style="normal" font-weight="bold" text-decoration="none" x="45" y="17.5">interaction</text></g></g><g transform="translate(-30,10) scale(1,1)"><path fill="#ffffd8" stroke="none" d="M 105.6634383877841 47.3 C 105.6634383877841 43.82060576 108.54184010996592 41 112.092529296875 41 C 115.64321848378408 41 118.5216202059659 43.82060576 118.5216202059659 47.3 C 118.5216202059659 50.779394239999995 115.64321848378408 53.6 112.092529296875 53.6 C 108.54184010996592 53.6 105.6634383877841 50.779394239999995 105.6634383877841 47.3 Z"/></g><g transform="translate(-30,10) scale(1,1)"><path fill="none" stroke="#000000" d="M 105.6634383877841 47.3 C 105.6634383877841 43.82060576 108.54184010996592 41 112.092529296875 41 C 115.64321848378408 41 118.5216202059659 43.82060576 118.5216202059659 47.3 C 118.5216202059659 50.779394239999995 115.64321848378408 53.6 112.092529296875 53.6 C 108.54184010996592 53.6 105.6634383877841 50.779394239999995 105.6634383877841 47.3 Z" stroke-miterlimit="10"/></g><g transform="translate(-30,10) scale(1,1)"><path fill="none" stroke="#000000" d="M 112.092529296875 53.6 L 112.092529296875 66.4" stroke-miterlimit="10"/></g><g transform="translate(-30,10) scale(1,1)"><path fill="none" stroke="#000000" d="M 105.28525656960227 58.4 L 118.89980202414773 58.4" stroke-miterlimit="10"/></g><g transform="translate(-30,10) scale(1,1)"><path fill="none" stroke="#000000" d="M 112.092529296875 66.4 L 102.63798384232955 79" stroke-miterlimit="10"/></g><g transform="translate(-30,10) scale(1,1)"><path fill="none" stroke="#000000" d="M 112.092529296875 66.4 L 121.54707475142045 79" stroke-miterlimit="10"/></g><g transform="translate(-30,10) scale(1,1)"><g><path fill="none" stroke="none"/><text fill="#000000" stroke="none" font-family="Arial" font-size="13px" font-style="normal" font-weight="bold" text-decoration="none" x="82.480712890625" y="99.5">小明: 顾客</text></g></g><g transform="translate(-30,10) scale(1,1)"><path fill="none" stroke="#000000" d="M 113.5 105 L 113.5 352" stroke-miterlimit="10" stroke-dasharray="3"/></g><g transform="translate(-30,10) scale(1,1)"><rect fill="#C0C0C0" stroke="none" x="223" y="47" width="73.65966796875" height="39" opacity="0.2"/></g><g transform="translate(-30,10) scale(1,1)"><rect fill="#ffffd8" stroke="none" x="216" y="40" width="73.65966796875" height="39"/></g><g transform="translate(-30,10) scale(1,1)"><path fill="none" stroke="#000000" d="M 216 40 L 289.65966796875 40 L 289.65966796875 79 L 216 79 L 216 40 Z Z" stroke-miterlimit="10"/></g><g transform="translate(-30,10) scale(1,1)"><g><path fill="none" stroke="none"/><text fill="#000000" stroke="none" font-family="Arial" font-size="13px" font-style="normal" font-weight="bold" text-decoration="none" x="226.575927734375" y="59.5">Web Site</text></g></g><g transform="translate(-30,10) scale(1,1)"><path fill="none" stroke="#000000" d="M 253.5 80 L 253.5 352" stroke-miterlimit="10" stroke-dasharray="3"/></g><g transform="translate(-30,10) scale(1,1)"><rect fill="#C0C0C0" stroke="none" x="423" y="47" width="102.8017578125" height="39" opacity="0.2"/></g><g transform="translate(-30,10) scale(1,1)"><rect fill="#ffffd8" stroke="none" x="416" y="40" width="102.8017578125" height="39"/></g><g transform="translate(-30,10) scale(1,1)"><path fill="none" stroke="#000000" d="M 416 40 L 518.8017578125 40 L 518.8017578125 79 L 416 79 L 416 40 Z Z" stroke-miterlimit="10"/></g><g transform="translate(-30,10) scale(1,1)"><g><path fill="none" stroke="none"/><text fill="#000000" stroke="none" font-family="Arial" font-size="13px" font-style="normal" font-weight="bold" text-decoration="none" x="428.74365234375" y="59.5">: AuthService</text></g></g><g transform="translate(-30,10) scale(1,1)"><path fill="none" stroke="#000000" d="M 468.5 80 L 468.5 352" stroke-miterlimit="10" stroke-dasharray="3"/></g><g transform="translate(-30,10) scale(1,1)"><rect fill="#C0C0C0" stroke="none" x="559" y="47" width="102.10986328125" height="39" opacity="0.2"/></g><g transform="translate(-30,10) scale(1,1)"><rect fill="#ffffd8" stroke="none" x="552" y="40" width="102.10986328125" height="39"/></g><g transform="translate(-30,10) scale(1,1)"><path fill="none" stroke="#000000" d="M 552 40 L 654.10986328125 40 L 654.10986328125 79 L 552 79 L 552 40 Z Z" stroke-miterlimit="10"/></g><g transform="translate(-30,10) scale(1,1)"><g><path fill="none" stroke="none"/><text fill="#000000" stroke="none" font-family="Arial" font-size="13px" font-style="normal" font-weight="bold" text-decoration="none" x="564.04541015625" y="59.5">: UserService</text></g></g><g transform="translate(-30,10) scale(1,1)"><path fill="none" stroke="#000000" d="M 604.5 80 L 604.5 352" stroke-miterlimit="10" stroke-dasharray="3"/></g><g transform="translate(-30,10) scale(1,1)"><path fill="none" stroke="#000000" d="M 128 200 L 664 200 L 664 288 L 128 288 L 128 200" stroke-miterlimit="10"/></g><g transform="translate(-30,10) scale(1,1)"><path fill="#ffffd8" stroke="none" d="M 128 200 L 128 222 L 162.07177734375 222 L 173.07177734375 211 L 173.07177734375 200 L 128 200"/></g><g transform="translate(-30,10) scale(1,1)"><path fill="none" stroke="#000000" d="M 128 200 L 128 222 L 162.07177734375 222 L 173.07177734375 211 L 173.07177734375 200 L 128 200 L 128 200" stroke-miterlimit="10"/></g><g transform="translate(-30,10) scale(1,1)"><g><path fill="none" stroke="none"/><text fill="#000000" stroke="none" font-family="Arial" font-size="13px" font-style="normal" font-weight="bold" text-decoration="none" x="133" y="217.5">opt</text></g></g><g transform="translate(-30,10) scale(1,1)"><g><path fill="none" stroke="none"/><text fill="#000000" stroke="none" font-family="Arial" font-size="13px" font-style="normal" font-weight="normal" text-decoration="none" x="147.5" y="250.5">[账密吻合]</text></g></g><g transform="translate(-30,10) scale(1,1)"><path fill="none" stroke="#000000" d="M 113 136 L 246 136" stroke-miterlimit="10"/></g><g transform="translate(-30,10) scale(1,1)"><path fill="#000000" stroke="none" d="M 235.83732514237585 140.209517756016 L 246 136 L 235.83732514237585 131.790482243984"/></g><g transform="translate(-30,10) scale(1,1)"><path fill="none" stroke="#000000" d="M 235.83732514237585 140.209517756016 L 246 136 L 235.83732514237585 131.790482243984 L 235.83732514237585 140.209517756016" stroke-miterlimit="10"/></g><g transform="translate(-30,10) scale(1,1)"><g><path fill="none" stroke="none"/><text fill="#000000" stroke="none" font-family="Arial" font-size="13px" font-style="normal" font-weight="normal" text-decoration="none" x="157.456787109375" y="132.5">1 : 登录</text></g></g><g transform="translate(-30,10) scale(1,1)"><rect fill="#ffffd8" stroke="none" x="246" y="136" width="13" height="192"/></g><g transform="translate(-30,10) scale(1,1)"><path fill="none" stroke="#000000" d="M 246 136 L 259 136 L 259 328 L 246 328 L 246 136 Z Z" stroke-miterlimit="10"/></g><g transform="translate(-30,10) scale(1,1)"><path fill="none" stroke="#000000" d="M 259 168 L 461 168" stroke-miterlimit="10"/></g><g transform="translate(-30,10) scale(1,1)"><path fill="#000000" stroke="none" d="M 450.83732514237585 172.209517756016 L 461 168 L 450.83732514237585 163.790482243984"/></g><g transform="translate(-30,10) scale(1,1)"><path fill="none" stroke="#000000" d="M 450.83732514237585 172.209517756016 L 461 168 L 450.83732514237585 163.790482243984 L 450.83732514237585 172.209517756016" stroke-miterlimit="10"/></g><g transform="translate(-30,10) scale(1,1)"><g><path fill="none" stroke="none"/><text fill="#000000" stroke="none" font-family="Arial" font-size="13px" font-style="normal" font-weight="normal" text-decoration="none" x="275.5" y="164.5">2 : 验证登录账号密码(id,pwd)</text></g></g><g transform="translate(-30,10) scale(1,1)"><rect fill="#ffffd8" stroke="none" x="461" y="168" width="13" height="28"/></g><g transform="translate(-30,10) scale(1,1)"><path fill="none" stroke="#000000" d="M 461 168 L 474 168 L 474 196 L 461 196 L 461 168 Z Z" stroke-miterlimit="10"/></g><g transform="translate(-30,10) scale(1,1)"><path fill="none" stroke="#000000" d="M 259 240 L 597 240" stroke-miterlimit="10"/></g><g transform="translate(-30,10) scale(1,1)"><path fill="#000000" stroke="none" d="M 586.8373251423759 244.209517756016 L 597 240 L 586.8373251423758 235.790482243984"/></g><g transform="translate(-30,10) scale(1,1)"><path fill="none" stroke="#000000" d="M 586.8373251423759 244.209517756016 L 597 240 L 586.8373251423758 235.790482243984 L 586.8373251423759 244.209517756016" stroke-miterlimit="10"/></g><g transform="translate(-30,10) scale(1,1)"><g><path fill="none" stroke="none"/><text fill="#000000" stroke="none" font-family="Arial" font-size="13px" font-style="normal" font-weight="normal" text-decoration="none" x="366.5" y="236.5">3 : 取得用户个人资料</text></g></g><g transform="translate(-30,10) scale(1,1)"><rect fill="#ffffd8" stroke="none" x="597" y="240" width="13" height="28"/></g><g transform="translate(-30,10) scale(1,1)"><path fill="none" stroke="#000000" d="M 597 240 L 610 240 L 610 268 L 597 268 L 597 240 Z Z" stroke-miterlimit="10"/></g><g transform="translate(-30,10) scale(1,1)"><path fill="none" stroke="#000000" d="M 246 320 L 113 320" stroke-miterlimit="10" stroke-dasharray="3"/></g><g transform="translate(-30,10) scale(1,1)"><path fill="none" stroke="#000000" d="M 123.16267485762415 315.790482243984 L 113 320 L 123.16267485762415 324.209517756016" stroke-miterlimit="10"/></g><g transform="translate(-30,10) scale(1,1)"><g><path fill="none" stroke="none"/><text fill="#000000" stroke="none" font-family="Arial" font-size="13px" font-style="normal" font-weight="normal" text-decoration="none" x="168.5" y="336.5">4 : </text></g></g></g></svg>