<svg version="1.1" xmlns="http://www.w3.org/2000/svg" xmlns:xlink="http://www.w3.org/1999/xlink" width="284" height="284"><defs/><g><g transform="translate(-134,2) scale(1,1)"><path fill="none" stroke="#000000" d="M 144 8 L 408 8 L 408 272 L 144 272 L 144 8" stroke-miterlimit="10"/></g><g transform="translate(-134,2) scale(1,1)"><path fill="#ffffd8" stroke="none" d="M 144 8 L 144 30 L 327.654296875 30 L 338.654296875 19 L 338.654296875 8 L 144 8"/></g><g transform="translate(-134,2) scale(1,1)"><path fill="none" stroke="#000000" d="M 144 8 L 144 30 L 327.654296875 30 L 338.654296875 19 L 338.654296875 8 L 144 8 L 144 8" stroke-miterlimit="10"/></g><g transform="translate(-134,2) scale(1,1)"><g><path fill="none" stroke="none"/><text fill="#000000" stroke="none" font-family="Arial" font-size="13px" font-style="normal" font-weight="normal" text-decoration="none" x="214.97900390625" y="25.5">&#160;SequenceDiagram</text></g></g><g transform="translate(-134,2) scale(1,1)"><g><path fill="none" stroke="none"/><text fill="#000000" stroke="none" font-family="Arial" font-size="13px" font-style="normal" font-weight="bold" text-decoration="none" x="149" y="25.5">interaction</text></g></g><g transform="translate(-134,2) scale(1,1)"><rect fill="#C0C0C0" stroke="none" x="319" y="47" width="71.736328125" height="39" opacity="0.2"/></g><g transform="translate(-134,2) scale(1,1)"><rect fill="#ffffd8" stroke="none" x="312" y="40" width="71.736328125" height="39"/></g><g transform="translate(-134,2) scale(1,1)"><path fill="none" stroke="#000000" d="M 312 40 L 383.736328125 40 L 383.736328125 79 L 312 79 L 312 40 Z Z" stroke-miterlimit="10"/></g><g transform="translate(-134,2) scale(1,1)"><g><path fill="none" stroke="none"/><text fill="#000000" stroke="none" font-family="Arial" font-size="13px" font-style="normal" font-weight="bold" text-decoration="none" x="331.25634765625" y="59.5">: 电脑</text></g></g><g transform="translate(-134,2) scale(1,1)"><path fill="none" stroke="#000000" d="M 348.5 80 L 348.5 264" stroke-miterlimit="10" stroke-dasharray="3"/></g><g transform="translate(-134,2) scale(1,1)"><path fill="#ffffd8" stroke="none" d="M 241.4095321377841 47.3 C 241.4095321377841 43.82060576 244.28793385996593 41 247.83862304687503 41 C 251.38931223378412 41 254.26771395596595 43.82060576 254.26771395596595 47.3 C 254.26771395596595 50.779394239999995 251.38931223378412 53.6 247.83862304687503 53.6 C 244.28793385996593 53.6 241.4095321377841 50.779394239999995 241.4095321377841 47.3 Z"/></g><g transform="translate(-134,2) scale(1,1)"><path fill="none" stroke="#000000" d="M 241.4095321377841 47.3 C 241.4095321377841 43.82060576 244.28793385996593 41 247.83862304687503 41 C 251.38931223378412 41 254.26771395596595 43.82060576 254.26771395596595 47.3 C 254.26771395596595 50.779394239999995 251.38931223378412 53.6 247.83862304687503 53.6 C 244.28793385996593 53.6 241.4095321377841 50.779394239999995 241.4095321377841 47.3 Z" stroke-miterlimit="10"/></g><g transform="translate(-134,2) scale(1,1)"><path fill="none" stroke="#000000" d="M 247.83862304687503 53.6 L 247.83862304687503 66.4" stroke-miterlimit="10"/></g><g transform="translate(-134,2) scale(1,1)"><path fill="none" stroke="#000000" d="M 241.0313503196023 58.4 L 254.64589577414776 58.4" stroke-miterlimit="10"/></g><g transform="translate(-134,2) scale(1,1)"><path fill="none" stroke="#000000" d="M 247.83862304687503 66.4 L 238.38407759232956 79" stroke-miterlimit="10"/></g><g transform="translate(-134,2) scale(1,1)"><path fill="none" stroke="#000000" d="M 247.83862304687503 66.4 L 257.2931685014205 79" stroke-miterlimit="10"/></g><g transform="translate(-134,2) scale(1,1)"><g><path fill="none" stroke="none"/><text fill="#000000" stroke="none" font-family="Arial" font-size="13px" font-style="normal" font-weight="bold" text-decoration="none" x="224.726806640625" y="99.5">: 工程师</text></g></g><g transform="translate(-134,2) scale(1,1)"><path fill="none" stroke="#000000" d="M 248.5 105 L 248.5 264" stroke-miterlimit="10" stroke-dasharray="3"/></g><g transform="translate(-134,2) scale(1,1)"><path fill="none" stroke="#000000" d="M 168 112 L 384 112 L 384 248 L 168 248 L 168 112" stroke-miterlimit="10"/></g><g transform="translate(-134,2) scale(1,1)"><path fill="#ffffd8" stroke="none" d="M 168 112 L 168 134 L 197.72998046875 134 L 208.72998046875 123 L 208.72998046875 112 L 168 112"/></g><g transform="translate(-134,2) scale(1,1)"><path fill="none" stroke="#000000" d="M 168 112 L 168 134 L 197.72998046875 134 L 208.72998046875 123 L 208.72998046875 112 L 168 112 L 168 112" stroke-miterlimit="10"/></g><g transform="translate(-134,2) scale(1,1)"><g><path fill="none" stroke="none"/><text fill="#000000" stroke="none" font-family="Arial" font-size="13px" font-style="normal" font-weight="bold" text-decoration="none" x="173" y="129.5">alt</text></g></g><g transform="translate(-134,2) scale(1,1)"><g><path fill="none" stroke="none"/><text fill="#000000" stroke="none" font-family="Arial" font-size="13px" font-style="normal" font-weight="normal" text-decoration="none" x="187.5" y="162.5">[have job]</text></g></g><g transform="translate(-134,2) scale(1,1)"><path fill="none" stroke="#000000" d="M 168 178 L 384 178" stroke-miterlimit="10" stroke-dasharray="10,3"/></g><g transform="translate(-134,2) scale(1,1)"><g><path fill="none" stroke="none"/><text fill="#000000" stroke="none" font-family="Arial" font-size="13px" font-style="normal" font-weight="normal" text-decoration="none" x="187.5" y="205.5">[else]</text></g></g><g transform="translate(-134,2) scale(1,1)"><path fill="none" stroke="#000000" d="M 248 136 L 341 136" stroke-miterlimit="10"/></g><g transform="translate(-134,2) scale(1,1)"><path fill="#000000" stroke="none" d="M 330.83732514237585 140.209517756016 L 341 136 L 330.83732514237585 131.790482243984"/></g><g transform="translate(-134,2) scale(1,1)"><path fill="none" stroke="#000000" d="M 330.83732514237585 140.209517756016 L 341 136 L 330.83732514237585 131.790482243984 L 330.83732514237585 140.209517756016" stroke-miterlimit="10"/></g><g transform="translate(-134,2) scale(1,1)"><g><path fill="none" stroke="none"/><text fill="#000000" stroke="none" font-family="Arial" font-size="13px" font-style="normal" font-weight="normal" text-decoration="none" x="264.989501953125" y="132.5">1 : 写程序</text></g></g><g transform="translate(-134,2) scale(1,1)"><rect fill="#ffffd8" stroke="none" x="341" y="136" width="13" height="28"/></g><g transform="translate(-134,2) scale(1,1)"><path fill="none" stroke="#000000" d="M 341 136 L 354 136 L 354 164 L 341 164 L 341 136 Z Z" stroke-miterlimit="10"/></g><g transform="translate(-134,2) scale(1,1)"><path fill="none" stroke="#000000" d="M 248 211 L 341 211" stroke-miterlimit="10"/></g><g transform="translate(-134,2) scale(1,1)"><path fill="#000000" stroke="none" d="M 330.83732514237585 215.209517756016 L 341 211 L 330.83732514237585 206.790482243984"/></g><g transform="translate(-134,2) scale(1,1)"><path fill="none" stroke="#000000" d="M 330.83732514237585 215.209517756016 L 341 211 L 330.83732514237585 206.790482243984 L 330.83732514237585 215.209517756016" stroke-miterlimit="10"/></g><g transform="translate(-134,2) scale(1,1)"><g><path fill="none" stroke="none"/><text fill="#000000" stroke="none" font-family="Arial" font-size="13px" font-style="normal" font-weight="normal" text-decoration="none" x="264.989501953125" y="207.5">2 : 听音乐</text></g></g><g transform="translate(-134,2) scale(1,1)"><rect fill="#ffffd8" stroke="none" x="341" y="211" width="13" height="28"/></g><g transform="translate(-134,2) scale(1,1)"><path fill="none" stroke="#000000" d="M 341 211 L 354 211 L 354 239 L 341 239 L 341 211 Z Z" stroke-miterlimit="10"/></g></g></svg>