<svg version="1.1" xmlns="http://www.w3.org/2000/svg" xmlns:xlink="http://www.w3.org/1999/xlink" width="284" height="295"><defs/><g><g transform="translate(-38,5) scale(1,1)"><path fill="none" stroke="#000000" d="M 48 5 L 312 5 L 312 280 L 48 280 L 48 5" stroke-miterlimit="10"/></g><g transform="translate(-38,5) scale(1,1)"><path fill="#ffffd8" stroke="none" d="M 48 5 L 48 27 L 231.654296875 27 L 242.654296875 16 L 242.654296875 5 L 48 5"/></g><g transform="translate(-38,5) scale(1,1)"><path fill="none" stroke="#000000" d="M 48 5 L 48 27 L 231.654296875 27 L 242.654296875 16 L 242.654296875 5 L 48 5 L 48 5" stroke-miterlimit="10"/></g><g transform="translate(-38,5) scale(1,1)"><g><path fill="none" stroke="none"/><text fill="#000000" stroke="none" font-family="Arial" font-size="13px" font-style="normal" font-weight="normal" text-decoration="none" x="118.97900390625" y="22.5">&#160;SequenceDiagram</text></g></g><g transform="translate(-38,5) scale(1,1)"><g><path fill="none" stroke="none"/><text fill="#000000" stroke="none" font-family="Arial" font-size="13px" font-style="normal" font-weight="bold" text-decoration="none" x="53" y="22.5">interaction</text></g></g><g transform="translate(-38,5) scale(1,1)"><path fill="#ffffd8" stroke="none" d="M 121.4095321377841 47.3 C 121.4095321377841 43.82060576 124.2879338599659 41 127.838623046875 41 C 131.3893122337841 41 134.26771395596592 43.82060576 134.26771395596592 47.3 C 134.26771395596592 50.779394239999995 131.3893122337841 53.6 127.838623046875 53.6 C 124.2879338599659 53.6 121.4095321377841 50.779394239999995 121.4095321377841 47.3 Z"/></g><g transform="translate(-38,5) scale(1,1)"><path fill="none" stroke="#000000" d="M 121.4095321377841 47.3 C 121.4095321377841 43.82060576 124.2879338599659 41 127.838623046875 41 C 131.3893122337841 41 134.26771395596592 43.82060576 134.26771395596592 47.3 C 134.26771395596592 50.779394239999995 131.3893122337841 53.6 127.838623046875 53.6 C 124.2879338599659 53.6 121.4095321377841 50.779394239999995 121.4095321377841 47.3 Z" stroke-miterlimit="10"/></g><g transform="translate(-38,5) scale(1,1)"><path fill="none" stroke="#000000" d="M 127.838623046875 53.6 L 127.838623046875 66.4" stroke-miterlimit="10"/></g><g transform="translate(-38,5) scale(1,1)"><path fill="none" stroke="#000000" d="M 121.03135031960228 58.4 L 134.64589577414773 58.4" stroke-miterlimit="10"/></g><g transform="translate(-38,5) scale(1,1)"><path fill="none" stroke="#000000" d="M 127.838623046875 66.4 L 118.38407759232955 79" stroke-miterlimit="10"/></g><g transform="translate(-38,5) scale(1,1)"><path fill="none" stroke="#000000" d="M 127.838623046875 66.4 L 137.29316850142047 79" stroke-miterlimit="10"/></g><g transform="translate(-38,5) scale(1,1)"><g><path fill="none" stroke="none"/><text fill="#000000" stroke="none" font-family="Arial" font-size="13px" font-style="normal" font-weight="bold" text-decoration="none" x="104.726806640625" y="99.5">: 工程师</text></g></g><g transform="translate(-38,5) scale(1,1)"><path fill="none" stroke="#000000" d="M 128.5 105 L 128.5 272" stroke-miterlimit="10" stroke-dasharray="3"/></g><g transform="translate(-38,5) scale(1,1)"><rect fill="#C0C0C0" stroke="none" x="215" y="47" width="65.67724609375" height="39" opacity="0.2"/></g><g transform="translate(-38,5) scale(1,1)"><rect fill="#ffffd8" stroke="none" x="208" y="40" width="65.67724609375" height="39"/></g><g transform="translate(-38,5) scale(1,1)"><path fill="none" stroke="#000000" d="M 208 40 L 273.67724609375 40 L 273.67724609375 79 L 208 79 L 208 40 Z Z" stroke-miterlimit="10"/></g><g transform="translate(-38,5) scale(1,1)"><g><path fill="none" stroke="none"/><text fill="#000000" stroke="none" font-family="Arial" font-size="13px" font-style="normal" font-weight="bold" text-decoration="none" x="224.226806640625" y="59.5">: 电脑</text></g></g><g transform="translate(-38,5) scale(1,1)"><path fill="none" stroke="#000000" d="M 241.5 80 L 241.5 272" stroke-miterlimit="10" stroke-dasharray="3"/></g><g transform="translate(-38,5) scale(1,1)"><path fill="none" stroke="#000000" d="M 72 112 L 288 112 L 288 252 L 72 252 L 72 112" stroke-miterlimit="10"/></g><g transform="translate(-38,5) scale(1,1)"><path fill="#ffffd8" stroke="none" d="M 72 112 L 72 134 L 106.7890625 134 L 117.7890625 123 L 117.7890625 112 L 72 112"/></g><g transform="translate(-38,5) scale(1,1)"><path fill="none" stroke="#000000" d="M 72 112 L 72 134 L 106.7890625 134 L 117.7890625 123 L 117.7890625 112 L 72 112 L 72 112" stroke-miterlimit="10"/></g><g transform="translate(-38,5) scale(1,1)"><g><path fill="none" stroke="none"/><text fill="#000000" stroke="none" font-family="Arial" font-size="13px" font-style="normal" font-weight="bold" text-decoration="none" x="77" y="129.5">par</text></g></g><g transform="translate(-38,5) scale(1,1)"><path fill="none" stroke="#000000" d="M 72 185 L 288 185" stroke-miterlimit="10" stroke-dasharray="10,3"/></g><g transform="translate(-38,5) scale(1,1)"><path fill="none" stroke="#000000" d="M 128 144 L 234 144" stroke-miterlimit="10"/></g><g transform="translate(-38,5) scale(1,1)"><path fill="#000000" stroke="none" d="M 223.83732514237585 148.209517756016 L 234 144 L 223.83732514237585 139.790482243984"/></g><g transform="translate(-38,5) scale(1,1)"><path fill="none" stroke="#000000" d="M 223.83732514237585 148.209517756016 L 234 144 L 223.83732514237585 139.790482243984 L 223.83732514237585 148.209517756016" stroke-miterlimit="10"/></g><g transform="translate(-38,5) scale(1,1)"><g><path fill="none" stroke="none"/><text fill="#000000" stroke="none" font-family="Arial" font-size="13px" font-style="normal" font-weight="normal" text-decoration="none" x="151.989501953125" y="140.5">1 : 写程序</text></g></g><g transform="translate(-38,5) scale(1,1)"><rect fill="#ffffd8" stroke="none" x="234" y="144" width="13" height="28"/></g><g transform="translate(-38,5) scale(1,1)"><path fill="none" stroke="#000000" d="M 234 144 L 247 144 L 247 172 L 234 172 L 234 144 Z Z" stroke-miterlimit="10"/></g><g transform="translate(-38,5) scale(1,1)"><path fill="none" stroke="#000000" d="M 128 210 L 234 210" stroke-miterlimit="10"/></g><g transform="translate(-38,5) scale(1,1)"><path fill="#000000" stroke="none" d="M 223.83732514237585 214.209517756016 L 234 210 L 223.83732514237585 205.790482243984"/></g><g transform="translate(-38,5) scale(1,1)"><path fill="none" stroke="#000000" d="M 223.83732514237585 214.209517756016 L 234 210 L 223.83732514237585 205.790482243984 L 223.83732514237585 214.209517756016" stroke-miterlimit="10"/></g><g transform="translate(-38,5) scale(1,1)"><g><path fill="none" stroke="none"/><text fill="#000000" stroke="none" font-family="Arial" font-size="13px" font-style="normal" font-weight="normal" text-decoration="none" x="151.989501953125" y="206.5">2 : 听音乐</text></g></g><g transform="translate(-38,5) scale(1,1)"><rect fill="#ffffd8" stroke="none" x="234" y="210" width="13" height="28"/></g><g transform="translate(-38,5) scale(1,1)"><path fill="none" stroke="#000000" d="M 234 210 L 247 210 L 247 238 L 234 238 L 234 210 Z Z" stroke-miterlimit="10"/></g></g></svg>