<svg version="1.1" xmlns="http://www.w3.org/2000/svg" xmlns:xlink="http://www.w3.org/1999/xlink" width="300" height="300"><defs/><g><g transform="translate(-6,10) scale(1,1)"><path fill="none" stroke="#000000" d="M 16 0 L 296 0 L 296 280 L 16 280 L 16 0" stroke-miterlimit="10"/></g><g transform="translate(-6,10) scale(1,1)"><path fill="#ffffd8" stroke="none" d="M 16 0 L 16 22 L 199.654296875 22 L 210.654296875 11 L 210.654296875 0 L 16 0"/></g><g transform="translate(-6,10) scale(1,1)"><path fill="none" stroke="#000000" d="M 16 0 L 16 22 L 199.654296875 22 L 210.654296875 11 L 210.654296875 0 L 16 0 L 16 0" stroke-miterlimit="10"/></g><g transform="translate(-6,10) scale(1,1)"><g><path fill="none" stroke="none"/><text fill="#000000" stroke="none" font-family="Arial" font-size="13px" font-style="normal" font-weight="normal" text-decoration="none" x="86.97900390625" y="17.5">&#160;SequenceDiagram</text></g></g><g transform="translate(-6,10) scale(1,1)"><g><path fill="none" stroke="none"/><text fill="#000000" stroke="none" font-family="Arial" font-size="13px" font-style="normal" font-weight="bold" text-decoration="none" x="21" y="17.5">interaction</text></g></g><g transform="translate(-6,10) scale(1,1)"><path fill="#ffffd8" stroke="none" d="M 125.4095321377841 47.3 C 125.4095321377841 43.82060576 128.2879338599659 41 131.838623046875 41 C 135.3893122337841 41 138.26771395596592 43.82060576 138.26771395596592 47.3 C 138.26771395596592 50.779394239999995 135.3893122337841 53.6 131.838623046875 53.6 C 128.2879338599659 53.6 125.4095321377841 50.779394239999995 125.4095321377841 47.3 Z"/></g><g transform="translate(-6,10) scale(1,1)"><path fill="none" stroke="#000000" d="M 125.4095321377841 47.3 C 125.4095321377841 43.82060576 128.2879338599659 41 131.838623046875 41 C 135.3893122337841 41 138.26771395596592 43.82060576 138.26771395596592 47.3 C 138.26771395596592 50.779394239999995 135.3893122337841 53.6 131.838623046875 53.6 C 128.2879338599659 53.6 125.4095321377841 50.779394239999995 125.4095321377841 47.3 Z" stroke-miterlimit="10"/></g><g transform="translate(-6,10) scale(1,1)"><path fill="none" stroke="#000000" d="M 131.838623046875 53.6 L 131.838623046875 66.4" stroke-miterlimit="10"/></g><g transform="translate(-6,10) scale(1,1)"><path fill="none" stroke="#000000" d="M 125.03135031960228 58.4 L 138.64589577414773 58.4" stroke-miterlimit="10"/></g><g transform="translate(-6,10) scale(1,1)"><path fill="none" stroke="#000000" d="M 131.838623046875 66.4 L 122.38407759232955 79" stroke-miterlimit="10"/></g><g transform="translate(-6,10) scale(1,1)"><path fill="none" stroke="#000000" d="M 131.838623046875 66.4 L 141.29316850142047 79" stroke-miterlimit="10"/></g><g transform="translate(-6,10) scale(1,1)"><g><path fill="none" stroke="none"/><text fill="#000000" stroke="none" font-family="Arial" font-size="13px" font-style="normal" font-weight="bold" text-decoration="none" x="108.726806640625" y="99.5">: 工程师</text></g></g><g transform="translate(-6,10) scale(1,1)"><path fill="none" stroke="#000000" d="M 132.5 105 L 132.5 272" stroke-miterlimit="10" stroke-dasharray="3"/></g><g transform="translate(-6,10) scale(1,1)"><rect fill="#C0C0C0" stroke="none" x="207" y="47" width="73.67724609375" height="39" opacity="0.2"/></g><g transform="translate(-6,10) scale(1,1)"><rect fill="#ffffd8" stroke="none" x="200" y="40" width="73.67724609375" height="39"/></g><g transform="translate(-6,10) scale(1,1)"><path fill="none" stroke="#000000" d="M 200 40 L 273.67724609375 40 L 273.67724609375 79 L 200 79 L 200 40 Z Z" stroke-miterlimit="10"/></g><g transform="translate(-6,10) scale(1,1)"><g><path fill="none" stroke="none"/><text fill="#000000" stroke="none" font-family="Arial" font-size="13px" font-style="normal" font-weight="bold" text-decoration="none" x="220.226806640625" y="59.5">: 电脑</text></g></g><g transform="translate(-6,10) scale(1,1)"><path fill="none" stroke="#000000" d="M 237.5 80 L 237.5 272" stroke-miterlimit="10" stroke-dasharray="3"/></g><g transform="translate(-6,10) scale(1,1)"><path fill="none" stroke="#000000" d="M 32 112 L 280 112 L 280 264 L 32 264 L 32 112" stroke-miterlimit="10"/></g><g transform="translate(-6,10) scale(1,1)"><path fill="#ffffd8" stroke="none" d="M 32 112 L 32 134 L 72.578125 134 L 83.578125 123 L 83.578125 112 L 32 112"/></g><g transform="translate(-6,10) scale(1,1)"><path fill="none" stroke="#000000" d="M 32 112 L 32 134 L 72.578125 134 L 83.578125 123 L 83.578125 112 L 32 112 L 32 112" stroke-miterlimit="10"/></g><g transform="translate(-6,10) scale(1,1)"><g><path fill="none" stroke="none"/><text fill="#000000" stroke="none" font-family="Arial" font-size="13px" font-style="normal" font-weight="bold" text-decoration="none" x="37" y="129.5">loop</text></g></g><g transform="translate(-6,10) scale(1,1)"><g><path fill="none" stroke="none"/><text fill="#000000" stroke="none" font-family="Arial" font-size="13px" font-style="normal" font-weight="normal" text-decoration="none" x="51.5" y="162.5">[遇到问题]</text></g></g><g transform="translate(-6,10) scale(1,1)"><path fill="none" stroke="#000000" d="M 48 176 L 264 176 L 264 248 L 48 248 L 48 176" stroke-miterlimit="10"/></g><g transform="translate(-6,10) scale(1,1)"><path fill="#ffffd8" stroke="none" d="M 48 176 L 48 198 L 96.51904296875 198 L 107.51904296875 187 L 107.51904296875 176 L 48 176"/></g><g transform="translate(-6,10) scale(1,1)"><path fill="none" stroke="#000000" d="M 48 176 L 48 198 L 96.51904296875 198 L 107.51904296875 187 L 107.51904296875 176 L 48 176 L 48 176" stroke-miterlimit="10"/></g><g transform="translate(-6,10) scale(1,1)"><g><path fill="none" stroke="none"/><text fill="#000000" stroke="none" font-family="Arial" font-size="13px" font-style="normal" font-weight="bold" text-decoration="none" x="53" y="193.5">break</text></g></g><g transform="translate(-6,10) scale(1,1)"><g><path fill="none" stroke="none"/><text fill="#000000" stroke="none" font-family="Arial" font-size="13px" font-style="normal" font-weight="normal" text-decoration="none" x="67.5" y="226.5">[找到解法]</text></g></g><g transform="translate(-6,10) scale(1,1)"><path fill="none" stroke="#000000" d="M 132 138 L 230 138" stroke-miterlimit="10"/></g><g transform="translate(-6,10) scale(1,1)"><path fill="#000000" stroke="none" d="M 219.83732514237585 142.209517756016 L 230 138 L 219.83732514237585 133.790482243984"/></g><g transform="translate(-6,10) scale(1,1)"><path fill="none" stroke="#000000" d="M 219.83732514237585 142.209517756016 L 230 138 L 219.83732514237585 133.790482243984 L 219.83732514237585 142.209517756016" stroke-miterlimit="10"/></g><g transform="translate(-6,10) scale(1,1)"><g><path fill="none" stroke="none"/><text fill="#000000" stroke="none" font-family="Arial" font-size="13px" font-style="normal" font-weight="normal" text-decoration="none" x="150.529541015625" y="134.5">1 : Google</text></g></g><g transform="translate(-6,10) scale(1,1)"><rect fill="#ffffd8" stroke="none" x="230" y="138" width="13" height="28"/></g><g transform="translate(-6,10) scale(1,1)"><path fill="none" stroke="#000000" d="M 230 138 L 243 138 L 243 166 L 230 166 L 230 138 Z Z" stroke-miterlimit="10"/></g><g transform="translate(-6,10) scale(1,1)"><path fill="none" stroke="#000000" d="M 132 210 L 230 210" stroke-miterlimit="10"/></g><g transform="translate(-6,10) scale(1,1)"><path fill="#000000" stroke="none" d="M 219.83732514237585 214.209517756016 L 230 210 L 219.83732514237585 205.790482243984"/></g><g transform="translate(-6,10) scale(1,1)"><path fill="none" stroke="#000000" d="M 219.83732514237585 214.209517756016 L 230 210 L 219.83732514237585 205.790482243984 L 219.83732514237585 214.209517756016" stroke-miterlimit="10"/></g><g transform="translate(-6,10) scale(1,1)"><g><path fill="none" stroke="none"/><text fill="#000000" stroke="none" font-family="Arial" font-size="13px" font-style="normal" font-weight="normal" text-decoration="none" x="145.489501953125" y="206.5">2 : 修改程序</text></g></g><g transform="translate(-6,10) scale(1,1)"><rect fill="#ffffd8" stroke="none" x="230" y="210" width="13" height="28"/></g><g transform="translate(-6,10) scale(1,1)"><path fill="none" stroke="#000000" d="M 230 210 L 243 210 L 243 238 L 230 238 L 230 210 Z Z" stroke-miterlimit="10"/></g></g></svg>