<svg version="1.1" xmlns="http://www.w3.org/2000/svg" xmlns:xlink="http://www.w3.org/1999/xlink" width="316" height="228"><defs/><g><g transform="translate(-46,10) scale(1,1)"><path fill="none" stroke="#000000" d="M 56 0 L 352 0 L 352 208 L 56 208 L 56 0" stroke-miterlimit="10"/></g><g transform="translate(-46,10) scale(1,1)"><path fill="#ffffd8" stroke="none" d="M 56 0 L 56 22 L 239.654296875 22 L 250.654296875 11 L 250.654296875 0 L 56 0"/></g><g transform="translate(-46,10) scale(1,1)"><path fill="none" stroke="#000000" d="M 56 0 L 56 22 L 239.654296875 22 L 250.654296875 11 L 250.654296875 0 L 56 0 L 56 0" stroke-miterlimit="10"/></g><g transform="translate(-46,10) scale(1,1)"><g><path fill="none" stroke="none"/><text fill="#000000" stroke="none" font-family="Arial" font-size="13px" font-style="normal" font-weight="normal" text-decoration="none" x="126.97900390625" y="17.5">&#160;SequenceDiagram</text></g></g><g transform="translate(-46,10) scale(1,1)"><g><path fill="none" stroke="none"/><text fill="#000000" stroke="none" font-family="Arial" font-size="13px" font-style="normal" font-weight="bold" text-decoration="none" x="61" y="17.5">interaction</text></g></g><g transform="translate(-46,10) scale(1,1)"><rect fill="#C0C0C0" stroke="none" x="271" y="47" width="62" height="39" opacity="0.2"/></g><g transform="translate(-46,10) scale(1,1)"><rect fill="#ffffd8" stroke="none" x="264" y="40" width="62" height="39"/></g><g transform="translate(-46,10) scale(1,1)"><path fill="none" stroke="#000000" d="M 264 40 L 326 40 L 326 79 L 264 79 L 264 40 Z Z" stroke-miterlimit="10"/></g><g transform="translate(-46,10) scale(1,1)"><g><path fill="none" stroke="none"/><text fill="#000000" stroke="none" font-family="Arial" font-size="13px" font-style="normal" font-weight="bold" text-decoration="none" x="278.38818359375" y="59.5">: 电脑</text></g></g><g transform="translate(-46,10) scale(1,1)"><path fill="none" stroke="#000000" d="M 296.5 80 L 296.5 208" stroke-miterlimit="10" stroke-dasharray="3"/></g><g transform="translate(-46,10) scale(1,1)"><path fill="#ffffd8" stroke="none" d="M 153.4095321377841 47.3 C 153.4095321377841 43.82060576 156.2879338599659 41 159.838623046875 41 C 163.3893122337841 41 166.26771395596592 43.82060576 166.26771395596592 47.3 C 166.26771395596592 50.779394239999995 163.3893122337841 53.6 159.838623046875 53.6 C 156.2879338599659 53.6 153.4095321377841 50.779394239999995 153.4095321377841 47.3 Z"/></g><g transform="translate(-46,10) scale(1,1)"><path fill="none" stroke="#000000" d="M 153.4095321377841 47.3 C 153.4095321377841 43.82060576 156.2879338599659 41 159.838623046875 41 C 163.3893122337841 41 166.26771395596592 43.82060576 166.26771395596592 47.3 C 166.26771395596592 50.779394239999995 163.3893122337841 53.6 159.838623046875 53.6 C 156.2879338599659 53.6 153.4095321377841 50.779394239999995 153.4095321377841 47.3 Z" stroke-miterlimit="10"/></g><g transform="translate(-46,10) scale(1,1)"><path fill="none" stroke="#000000" d="M 159.838623046875 53.6 L 159.838623046875 66.4" stroke-miterlimit="10"/></g><g transform="translate(-46,10) scale(1,1)"><path fill="none" stroke="#000000" d="M 153.0313503196023 58.4 L 166.64589577414773 58.4" stroke-miterlimit="10"/></g><g transform="translate(-46,10) scale(1,1)"><path fill="none" stroke="#000000" d="M 159.838623046875 66.4 L 150.38407759232956 79" stroke-miterlimit="10"/></g><g transform="translate(-46,10) scale(1,1)"><path fill="none" stroke="#000000" d="M 159.838623046875 66.4 L 169.29316850142047 79" stroke-miterlimit="10"/></g><g transform="translate(-46,10) scale(1,1)"><g><path fill="none" stroke="none"/><text fill="#000000" stroke="none" font-family="Arial" font-size="13px" font-style="normal" font-weight="bold" text-decoration="none" x="136.726806640625" y="99.5">: 工程师</text></g></g><g transform="translate(-46,10) scale(1,1)"><path fill="none" stroke="#000000" d="M 160.5 105 L 160.5 208" stroke-miterlimit="10" stroke-dasharray="3"/></g><g transform="translate(-46,10) scale(1,1)"><path fill="none" stroke="#000000" d="M 72 112 L 336 112 L 336 192 L 72 192 L 72 112" stroke-miterlimit="10"/></g><g transform="translate(-46,10) scale(1,1)"><path fill="#ffffd8" stroke="none" d="M 72 112 L 72 134 L 106.07177734375 134 L 117.07177734375 123 L 117.07177734375 112 L 72 112"/></g><g transform="translate(-46,10) scale(1,1)"><path fill="none" stroke="#000000" d="M 72 112 L 72 134 L 106.07177734375 134 L 117.07177734375 123 L 117.07177734375 112 L 72 112 L 72 112" stroke-miterlimit="10"/></g><g transform="translate(-46,10) scale(1,1)"><g><path fill="none" stroke="none"/><text fill="#000000" stroke="none" font-family="Arial" font-size="13px" font-style="normal" font-weight="bold" text-decoration="none" x="77" y="129.5">opt</text></g></g><g transform="translate(-46,10) scale(1,1)"><g><path fill="none" stroke="none"/><text fill="#000000" stroke="none" font-family="Arial" font-size="13px" font-style="normal" font-weight="normal" text-decoration="none" x="91.5" y="162.5">[遇到问题]</text></g></g><g transform="translate(-46,10) scale(1,1)"><path fill="none" stroke="#000000" d="M 160 144 L 289 144" stroke-miterlimit="10"/></g><g transform="translate(-46,10) scale(1,1)"><path fill="#000000" stroke="none" d="M 278.83732514237585 148.209517756016 L 289 144 L 278.83732514237585 139.790482243984"/></g><g transform="translate(-46,10) scale(1,1)"><path fill="none" stroke="#000000" d="M 278.83732514237585 148.209517756016 L 289 144 L 278.83732514237585 139.790482243984 L 278.83732514237585 148.209517756016" stroke-miterlimit="10"/></g><g transform="translate(-46,10) scale(1,1)"><g><path fill="none" stroke="none"/><text fill="#000000" stroke="none" font-family="Arial" font-size="13px" font-style="normal" font-weight="normal" text-decoration="none" x="164.5" y="139.5">1 : 查询stackoverflow</text></g></g><g transform="translate(-46,10) scale(1,1)"><rect fill="#ffffd8" stroke="none" x="289" y="144" width="13" height="28"/></g><g transform="translate(-46,10) scale(1,1)"><path fill="none" stroke="#000000" d="M 289 144 L 302 144 L 302 172 L 289 172 L 289 144 Z Z" stroke-miterlimit="10"/></g></g></svg>