<svg version="1.1" xmlns="http://www.w3.org/2000/svg" xmlns:xlink="http://www.w3.org/1999/xlink" width="492" height="375"><defs/><g><g transform="translate(-182,5) scale(1,1)"><path fill="none" stroke="#000000" d="M 192 5 L 664 5 L 664 360 L 192 360 L 192 5" stroke-miterlimit="10"/></g><g transform="translate(-182,5) scale(1,1)"><path fill="#ffffd8" stroke="none" d="M 192 5 L 192 27 L 345.97900390625 27 L 356.97900390625 16 L 356.97900390625 5 L 192 5"/></g><g transform="translate(-182,5) scale(1,1)"><path fill="none" stroke="#000000" d="M 192 5 L 192 27 L 345.97900390625 27 L 356.97900390625 16 L 356.97900390625 5 L 192 5 L 192 5" stroke-miterlimit="10"/></g><g transform="translate(-182,5) scale(1,1)"><g><path fill="none" stroke="none"/><text fill="#000000" stroke="none" font-family="Arial" font-size="13px" font-style="normal" font-weight="normal" text-decoration="none" x="262.97900390625" y="22.5">&#160;浏览购物网站</text></g></g><g transform="translate(-182,5) scale(1,1)"><g><path fill="none" stroke="none"/><text fill="#000000" stroke="none" font-family="Arial" font-size="13px" font-style="normal" font-weight="bold" text-decoration="none" x="197" y="22.5">interaction</text></g></g><g transform="translate(-182,5) scale(1,1)"><path fill="#ffffd8" stroke="none" d="M 290.4095321377841 47.3 C 290.4095321377841 43.82060576 293.2879338599659 41 296.838623046875 41 C 300.3893122337841 41 303.267713955966 43.82060576 303.267713955966 47.3 C 303.267713955966 50.779394239999995 300.3893122337841 53.6 296.838623046875 53.6 C 293.2879338599659 53.6 290.4095321377841 50.779394239999995 290.4095321377841 47.3 Z"/></g><g transform="translate(-182,5) scale(1,1)"><path fill="none" stroke="#000000" d="M 290.4095321377841 47.3 C 290.4095321377841 43.82060576 293.2879338599659 41 296.838623046875 41 C 300.3893122337841 41 303.267713955966 43.82060576 303.267713955966 47.3 C 303.267713955966 50.779394239999995 300.3893122337841 53.6 296.838623046875 53.6 C 293.2879338599659 53.6 290.4095321377841 50.779394239999995 290.4095321377841 47.3 Z" stroke-miterlimit="10"/></g><g transform="translate(-182,5) scale(1,1)"><path fill="none" stroke="#000000" d="M 296.838623046875 53.6 L 296.838623046875 66.4" stroke-miterlimit="10"/></g><g transform="translate(-182,5) scale(1,1)"><path fill="none" stroke="#000000" d="M 290.03135031960227 58.4 L 303.6458957741478 58.4" stroke-miterlimit="10"/></g><g transform="translate(-182,5) scale(1,1)"><path fill="none" stroke="#000000" d="M 296.838623046875 66.4 L 287.38407759232956 79" stroke-miterlimit="10"/></g><g transform="translate(-182,5) scale(1,1)"><path fill="none" stroke="#000000" d="M 296.838623046875 66.4 L 306.2931685014205 79" stroke-miterlimit="10"/></g><g transform="translate(-182,5) scale(1,1)"><g><path fill="none" stroke="none"/><text fill="#000000" stroke="none" font-family="Arial" font-size="13px" font-style="normal" font-weight="bold" text-decoration="none" x="280.226806640625" y="99.5">: 顾客</text></g></g><g transform="translate(-182,5) scale(1,1)"><path fill="none" stroke="#000000" d="M 297.5 105 L 297.5 352" stroke-miterlimit="10" stroke-dasharray="3"/></g><g transform="translate(-182,5) scale(1,1)"><rect fill="#C0C0C0" stroke="none" x="431" y="47" width="72" height="39" opacity="0.2"/></g><g transform="translate(-182,5) scale(1,1)"><rect fill="#ffffd8" stroke="none" x="424" y="40" width="72" height="39"/></g><g transform="translate(-182,5) scale(1,1)"><path fill="none" stroke="#000000" d="M 424 40 L 496 40 L 496 79 L 424 79 L 424 40 Z Z" stroke-miterlimit="10"/></g><g transform="translate(-182,5) scale(1,1)"><g><path fill="none" stroke="none"/><text fill="#000000" stroke="none" font-family="Arial" font-size="13px" font-style="normal" font-weight="bold" text-decoration="none" x="443.38818359375" y="59.5">: 网站</text></g></g><g transform="translate(-182,5) scale(1,1)"><path fill="none" stroke="#000000" d="M 461.5 80 L 461.5 352" stroke-miterlimit="10" stroke-dasharray="3"/></g><g transform="translate(-182,5) scale(1,1)"><rect fill="#C0C0C0" stroke="none" x="583" y="47" width="72" height="39" opacity="0.2"/></g><g transform="translate(-182,5) scale(1,1)"><rect fill="#ffffd8" stroke="none" x="576" y="40" width="72" height="39"/></g><g transform="translate(-182,5) scale(1,1)"><path fill="none" stroke="#000000" d="M 576 40 L 648 40 L 648 79 L 576 79 L 576 40 Z Z" stroke-miterlimit="10"/></g><g transform="translate(-182,5) scale(1,1)"><g><path fill="none" stroke="none"/><text fill="#000000" stroke="none" font-family="Arial" font-size="13px" font-style="normal" font-weight="bold" text-decoration="none" x="595.38818359375" y="59.5">: 服务</text></g></g><g transform="translate(-182,5) scale(1,1)"><path fill="none" stroke="#000000" d="M 613.5 80 L 613.5 352" stroke-miterlimit="10" stroke-dasharray="3"/></g><g transform="translate(-182,5) scale(1,1)"><rect fill="#ffffd8" stroke="none" x="424" y="128.5" width="14" height="14"/></g><g transform="translate(-182,5) scale(1,1)"><path fill="none" stroke="#000000" d="M 424 128.5 L 438 128.5 L 438 142.5 L 424 142.5 L 424 128.5 Z Z" stroke-miterlimit="10"/></g><g transform="translate(-182,5) scale(1,1)"><rect fill="#ffffd8" stroke="none" x="424" y="168.5" width="14" height="14"/></g><g transform="translate(-182,5) scale(1,1)"><path fill="none" stroke="#000000" d="M 424 168.5 L 438 168.5 L 438 182.5 L 424 182.5 L 424 168.5 Z Z" stroke-miterlimit="10"/></g><g transform="translate(-182,5) scale(1,1)"><path fill="none" stroke="#000000" d="M 208 216 L 648 216 L 648 336 L 208 336 L 208 216" stroke-miterlimit="10"/></g><g transform="translate(-182,5) scale(1,1)"><path fill="#ffffd8" stroke="none" d="M 208 216 L 208 238 L 242.07177734375 238 L 253.07177734375 227 L 253.07177734375 216 L 208 216"/></g><g transform="translate(-182,5) scale(1,1)"><path fill="none" stroke="#000000" d="M 208 216 L 208 238 L 242.07177734375 238 L 253.07177734375 227 L 253.07177734375 216 L 208 216 L 208 216" stroke-miterlimit="10"/></g><g transform="translate(-182,5) scale(1,1)"><g><path fill="none" stroke="none"/><text fill="#000000" stroke="none" font-family="Arial" font-size="13px" font-style="normal" font-weight="bold" text-decoration="none" x="213" y="233.5">opt</text></g></g><g transform="translate(-182,5) scale(1,1)"><g><path fill="none" stroke="none"/><text fill="#000000" stroke="none" font-family="Arial" font-size="13px" font-style="normal" font-weight="normal" text-decoration="none" x="227.5" y="266.5">[登录成功]</text></g></g><g transform="translate(-182,5) scale(1,1)"><rect fill="#ffffd8" stroke="none" x="424" y="112" width="224" height="88"/></g><g transform="translate(-182,5) scale(1,1)"><path fill="none" stroke="#000000" d="M 424 112 L 648 112 L 648 200 L 424 200 L 424 112 Z Z" stroke-miterlimit="10"/></g><g transform="translate(-182,5) scale(1,1)"><path fill="none" stroke="#000000" d="M 424 112 L 424 134 L 449.1708984375 134 L 460.1708984375 123 L 460.1708984375 112 L 424 112 L 424 112" stroke-miterlimit="10"/></g><g transform="translate(-182,5) scale(1,1)"><g><path fill="none" stroke="none"/><text fill="#000000" stroke="none" font-family="Arial" font-size="13px" font-style="normal" font-weight="normal" text-decoration="none" x="520.095947265625" y="162.5">Login</text></g></g><g transform="translate(-182,5) scale(1,1)"><g><path fill="none" stroke="none"/><text fill="#000000" stroke="none" font-family="Arial" font-size="13px" font-style="normal" font-weight="normal" text-decoration="none" x="429" y="129.5">ref</text></g></g><g transform="translate(-182,5) scale(1,1)"><path fill="none" stroke="#000000" d="M 297 136 L 424 136" stroke-miterlimit="10"/></g><g transform="translate(-182,5) scale(1,1)"><path fill="#000000" stroke="none" d="M 413.83732514237585 140.209517756016 L 424 136 L 413.83732514237585 131.790482243984"/></g><g transform="translate(-182,5) scale(1,1)"><path fill="none" stroke="#000000" d="M 413.83732514237585 140.209517756016 L 424 136 L 413.83732514237585 131.790482243984 L 413.83732514237585 140.209517756016" stroke-miterlimit="10"/></g><g transform="translate(-182,5) scale(1,1)"><g><path fill="none" stroke="none"/><text fill="#000000" stroke="none" font-family="Arial" font-size="13px" font-style="normal" font-weight="normal" text-decoration="none" x="337.489501953125" y="132.5">1 : 登录</text></g></g><g transform="translate(-182,5) scale(1,1)"><path fill="none" stroke="#000000" d="M 424 176 L 297 176" stroke-miterlimit="10" stroke-dasharray="3"/></g><g transform="translate(-182,5) scale(1,1)"><path fill="none" stroke="#000000" d="M 307.16267485762415 171.790482243984 L 297 176 L 307.16267485762415 180.209517756016" stroke-miterlimit="10"/></g><g transform="translate(-182,5) scale(1,1)"><g><path fill="none" stroke="none"/><text fill="#000000" stroke="none" font-family="Arial" font-size="13px" font-style="normal" font-weight="normal" text-decoration="none" x="323.5" y="192.5">2 : 登录结果</text></g></g><g transform="translate(-182,5) scale(1,1)"><path fill="none" stroke="#000000" d="M 297 248 L 454 248" stroke-miterlimit="10"/></g><g transform="translate(-182,5) scale(1,1)"><path fill="#000000" stroke="none" d="M 443.83732514237585 252.209517756016 L 454 248 L 443.83732514237585 243.790482243984"/></g><g transform="translate(-182,5) scale(1,1)"><path fill="none" stroke="#000000" d="M 443.83732514237585 252.209517756016 L 454 248 L 443.83732514237585 243.790482243984 L 443.83732514237585 252.209517756016" stroke-miterlimit="10"/></g><g transform="translate(-182,5) scale(1,1)"><g><path fill="none" stroke="none"/><text fill="#000000" stroke="none" font-family="Arial" font-size="13px" font-style="normal" font-weight="normal" text-decoration="none" x="339.489501953125" y="244.5">3 : 线上购物</text></g></g><g transform="translate(-182,5) scale(1,1)"><rect fill="#ffffd8" stroke="none" x="454" y="248" width="13" height="72"/></g><g transform="translate(-182,5) scale(1,1)"><path fill="none" stroke="#000000" d="M 454 248 L 467 248 L 467 320 L 454 320 L 454 248 Z Z" stroke-miterlimit="10"/></g><g transform="translate(-182,5) scale(1,1)"><path fill="none" stroke="#000000" d="M 467 272 L 606 272" stroke-miterlimit="10"/></g><g transform="translate(-182,5) scale(1,1)"><path fill="#000000" stroke="none" d="M 595.8373251423759 276.209517756016 L 606 272 L 595.8373251423758 267.790482243984"/></g><g transform="translate(-182,5) scale(1,1)"><path fill="none" stroke="#000000" d="M 595.8373251423759 276.209517756016 L 606 272 L 595.8373251423758 267.790482243984 L 595.8373251423759 276.209517756016" stroke-miterlimit="10"/></g><g transform="translate(-182,5) scale(1,1)"><g><path fill="none" stroke="none"/><text fill="#000000" stroke="none" font-family="Arial" font-size="13px" font-style="normal" font-weight="normal" text-decoration="none" x="474.5" y="268.5">4 : 取得客户偏好产品</text></g></g><g transform="translate(-182,5) scale(1,1)"><rect fill="#ffffd8" stroke="none" x="606" y="272" width="13" height="28"/></g><g transform="translate(-182,5) scale(1,1)"><path fill="none" stroke="#000000" d="M 606 272 L 619 272 L 619 300 L 606 300 L 606 272 Z Z" stroke-miterlimit="10"/></g></g></svg>