<svg version="1.1" xmlns="http://www.w3.org/2000/svg" xmlns:xlink="http://www.w3.org/1999/xlink" width="356" height="316"><defs/><g><g transform="translate(-206,2) scale(1,1)"><path fill="none" stroke="#000000" d="M 216 8 L 552 8 L 552 304 L 216 304 L 216 8" stroke-miterlimit="10"/></g><g transform="translate(-206,2) scale(1,1)"><path fill="#ffffd8" stroke="none" d="M 216 8 L 216 30 L 323.787109375 30 L 334.787109375 19 L 334.787109375 8 L 216 8"/></g><g transform="translate(-206,2) scale(1,1)"><path fill="none" stroke="#000000" d="M 216 8 L 216 30 L 323.787109375 30 L 334.787109375 19 L 334.787109375 8 L 216 8 L 216 8" stroke-miterlimit="10"/></g><g transform="translate(-206,2) scale(1,1)"><g><path fill="none" stroke="none"/><text fill="#000000" stroke="none" font-family="Arial" font-size="13px" font-style="normal" font-weight="normal" text-decoration="none" x="286.97900390625" y="25.5">&#160;Login</text></g></g><g transform="translate(-206,2) scale(1,1)"><g><path fill="none" stroke="none"/><text fill="#000000" stroke="none" font-family="Arial" font-size="13px" font-style="normal" font-weight="bold" text-decoration="none" x="221" y="25.5">interaction</text></g></g><g transform="translate(-206,2) scale(1,1)"><rect fill="#C0C0C0" stroke="none" x="239" y="47" width="54.94091796875" height="39" opacity="0.2"/></g><g transform="translate(-206,2) scale(1,1)"><rect fill="#ffffd8" stroke="none" x="232" y="40" width="54.94091796875" height="39"/></g><g transform="translate(-206,2) scale(1,1)"><path fill="none" stroke="#000000" d="M 232 40 L 286.94091796875 40 L 286.94091796875 79 L 232 79 L 232 40 Z Z" stroke-miterlimit="10"/></g><g transform="translate(-206,2) scale(1,1)"><g><path fill="none" stroke="none"/><text fill="#000000" stroke="none" font-family="Arial" font-size="13px" font-style="normal" font-weight="bold" text-decoration="none" x="242.858642578125" y="59.5">: 网站</text></g></g><g transform="translate(-206,2) scale(1,1)"><path fill="none" stroke="#000000" d="M 260.5 80 L 260.5 286" stroke-miterlimit="10" stroke-dasharray="3"/></g><g transform="translate(-206,2) scale(1,1)"><rect fill="#C0C0C0" stroke="none" x="399" y="47" width="54.94091796875" height="39" opacity="0.2"/></g><g transform="translate(-206,2) scale(1,1)"><rect fill="#ffffd8" stroke="none" x="392" y="40" width="54.94091796875" height="39"/></g><g transform="translate(-206,2) scale(1,1)"><path fill="none" stroke="#000000" d="M 392 40 L 446.94091796875 40 L 446.94091796875 79 L 392 79 L 392 40 Z Z" stroke-miterlimit="10"/></g><g transform="translate(-206,2) scale(1,1)"><g><path fill="none" stroke="none"/><text fill="#000000" stroke="none" font-family="Arial" font-size="13px" font-style="normal" font-weight="bold" text-decoration="none" x="402.858642578125" y="59.5">: 服务</text></g></g><g transform="translate(-206,2) scale(1,1)"><path fill="none" stroke="#000000" d="M 420.5 80 L 420.5 286" stroke-miterlimit="10" stroke-dasharray="3"/></g><g transform="translate(-206,2) scale(1,1)"><path fill="none" stroke="#000000" d="M 296 152 L 536 152 L 536 231 L 296 231 L 296 152" stroke-miterlimit="10"/></g><g transform="translate(-206,2) scale(1,1)"><path fill="#ffffd8" stroke="none" d="M 296 152 L 296 174 L 330.07177734375 174 L 341.07177734375 163 L 341.07177734375 152 L 296 152"/></g><g transform="translate(-206,2) scale(1,1)"><path fill="none" stroke="#000000" d="M 296 152 L 296 174 L 330.07177734375 174 L 341.07177734375 163 L 341.07177734375 152 L 296 152 L 296 152" stroke-miterlimit="10"/></g><g transform="translate(-206,2) scale(1,1)"><g><path fill="none" stroke="none"/><text fill="#000000" stroke="none" font-family="Arial" font-size="13px" font-style="normal" font-weight="bold" text-decoration="none" x="301" y="169.5">opt</text></g></g><g transform="translate(-206,2) scale(1,1)"><g><path fill="none" stroke="none"/><text fill="#000000" stroke="none" font-family="Arial" font-size="13px" font-style="normal" font-weight="normal" text-decoration="none" x="315.5" y="202.5">[验证错误&gt;3次]</text></g></g><g transform="translate(-206,2) scale(1,1)"><path fill="none" stroke="#000000" d="M 260 128 L 413 128" stroke-miterlimit="10"/></g><g transform="translate(-206,2) scale(1,1)"><path fill="#000000" stroke="none" d="M 402.83732514237585 132.209517756016 L 413 128 L 402.83732514237585 123.79048224398402"/></g><g transform="translate(-206,2) scale(1,1)"><path fill="none" stroke="#000000" d="M 402.83732514237585 132.209517756016 L 413 128 L 402.83732514237585 123.79048224398402 L 402.83732514237585 132.209517756016" stroke-miterlimit="10"/></g><g transform="translate(-206,2) scale(1,1)"><g><path fill="none" stroke="none"/><text fill="#000000" stroke="none" font-family="Arial" font-size="13px" font-style="normal" font-weight="normal" text-decoration="none" x="287.5" y="124.5">1 : 验证账号密码</text></g></g><g transform="translate(-206,2) scale(1,1)"><rect fill="#ffffd8" stroke="none" x="413" y="128" width="13" height="136"/></g><g transform="translate(-206,2) scale(1,1)"><path fill="none" stroke="#000000" d="M 413 128 L 426 128 L 426 264 L 413 264 L 413 128 Z Z" stroke-miterlimit="10"/></g><g transform="translate(-206,2) scale(1,1)"><path fill="none" stroke="#000000" d="M 426 168 L 456 168 L 456 188 L 433 188" stroke-miterlimit="10"/></g><g transform="translate(-206,2) scale(1,1)"><path fill="#000000" stroke="none" d="M 443.16267485762415 183.790482243984 L 433 188 L 443.16267485762415 192.209517756016"/></g><g transform="translate(-206,2) scale(1,1)"><path fill="none" stroke="#000000" d="M 443.16267485762415 183.790482243984 L 433 188 L 443.16267485762415 192.209517756016 L 443.16267485762415 183.790482243984" stroke-miterlimit="10"/></g><g transform="translate(-206,2) scale(1,1)"><g><path fill="none" stroke="none"/><text fill="#000000" stroke="none" font-family="Arial" font-size="13px" font-style="normal" font-weight="normal" text-decoration="none" x="459.635009765625" y="188.5">2 : 锁定用户</text></g></g><g transform="translate(-206,2) scale(1,1)"><rect fill="#ffffd8" stroke="none" x="420" y="188" width="13" height="28"/></g><g transform="translate(-206,2) scale(1,1)"><path fill="none" stroke="#000000" d="M 420 188 L 433 188 L 433 216 L 420 216 L 420 188 Z Z" stroke-miterlimit="10"/></g><g transform="translate(-206,2) scale(1,1)"><path fill="none" stroke="#000000" d="M 413 256 L 260 256" stroke-miterlimit="10" stroke-dasharray="3"/></g><g transform="translate(-206,2) scale(1,1)"><path fill="none" stroke="#000000" d="M 270.16267485762415 251.790482243984 L 260 256 L 270.16267485762415 260.209517756016" stroke-miterlimit="10"/></g><g transform="translate(-206,2) scale(1,1)"><g><path fill="none" stroke="none"/><text fill="#000000" stroke="none" font-family="Arial" font-size="13px" font-style="normal" font-weight="normal" text-decoration="none" x="299.5" y="272.5">3 : 验证结果</text></g></g></g></svg>