<svg version="1.1" xmlns="http://www.w3.org/2000/svg" xmlns:xlink="http://www.w3.org/1999/xlink" width="668" height="596"><defs/><g><g transform="translate(-6,2) scale(1,1)"><path fill="none" stroke="#000000" d="M 16 8 L 664 8 L 664 584 L 16 584 L 16 8" stroke-miterlimit="10"/></g><g transform="translate(-6,2) scale(1,1)"><path fill="#ffffd8" stroke="none" d="M 16 8 L 16 30 L 143.97900390625 30 L 154.97900390625 19 L 154.97900390625 8 L 16 8"/></g><g transform="translate(-6,2) scale(1,1)"><path fill="none" stroke="#000000" d="M 16 8 L 16 30 L 143.97900390625 30 L 154.97900390625 19 L 154.97900390625 8 L 16 8 L 16 8" stroke-miterlimit="10"/></g><g transform="translate(-6,2) scale(1,1)"><g><path fill="none" stroke="none"/><text fill="#000000" stroke="none" font-family="Arial" font-size="13px" font-style="normal" font-weight="normal" text-decoration="none" x="86.97900390625" y="25.5">&#160;预约挂号</text></g></g><g transform="translate(-6,2) scale(1,1)"><g><path fill="none" stroke="none"/><text fill="#000000" stroke="none" font-family="Arial" font-size="13px" font-style="normal" font-weight="bold" text-decoration="none" x="21" y="25.5">interaction</text></g></g><g transform="translate(-6,2) scale(1,1)"><path fill="#ffffd8" stroke="none" d="M 65.6634383877841 47.3 C 65.6634383877841 43.82060576 68.54184010996592 41 72.092529296875 41 C 75.64321848378408 41 78.5216202059659 43.82060576 78.5216202059659 47.3 C 78.5216202059659 50.779394239999995 75.64321848378408 53.6 72.092529296875 53.6 C 68.54184010996592 53.6 65.6634383877841 50.779394239999995 65.6634383877841 47.3 Z"/></g><g transform="translate(-6,2) scale(1,1)"><path fill="none" stroke="#000000" d="M 65.6634383877841 47.3 C 65.6634383877841 43.82060576 68.54184010996592 41 72.092529296875 41 C 75.64321848378408 41 78.5216202059659 43.82060576 78.5216202059659 47.3 C 78.5216202059659 50.779394239999995 75.64321848378408 53.6 72.092529296875 53.6 C 68.54184010996592 53.6 65.6634383877841 50.779394239999995 65.6634383877841 47.3 Z" stroke-miterlimit="10"/></g><g transform="translate(-6,2) scale(1,1)"><path fill="none" stroke="#000000" d="M 72.092529296875 53.6 L 72.092529296875 66.4" stroke-miterlimit="10"/></g><g transform="translate(-6,2) scale(1,1)"><path fill="none" stroke="#000000" d="M 65.28525656960227 58.4 L 78.89980202414773 58.4" stroke-miterlimit="10"/></g><g transform="translate(-6,2) scale(1,1)"><path fill="none" stroke="#000000" d="M 72.092529296875 66.4 L 62.63798384232955 79" stroke-miterlimit="10"/></g><g transform="translate(-6,2) scale(1,1)"><path fill="none" stroke="#000000" d="M 72.092529296875 66.4 L 81.54707475142045 79" stroke-miterlimit="10"/></g><g transform="translate(-6,2) scale(1,1)"><g><path fill="none" stroke="none"/><text fill="#000000" stroke="none" font-family="Arial" font-size="13px" font-style="normal" font-weight="bold" text-decoration="none" x="42.480712890625" y="99.5">小明: 病患</text></g></g><g transform="translate(-6,2) scale(1,1)"><path fill="none" stroke="#000000" d="M 73.5 105 L 73.5 566" stroke-miterlimit="10" stroke-dasharray="3"/></g><g transform="translate(-6,2) scale(1,1)"><rect fill="#C0C0C0" stroke="none" x="239" y="47" width="72" height="39" opacity="0.2"/></g><g transform="translate(-6,2) scale(1,1)"><rect fill="#ffffd8" stroke="none" x="232" y="40" width="72" height="39"/></g><g transform="translate(-6,2) scale(1,1)"><path fill="none" stroke="#000000" d="M 232 40 L 304 40 L 304 79 L 232 79 L 232 40 Z Z" stroke-miterlimit="10"/></g><g transform="translate(-6,2) scale(1,1)"><g><path fill="none" stroke="none"/><text fill="#000000" stroke="none" font-family="Arial" font-size="13px" font-style="normal" font-weight="bold" text-decoration="none" x="251.38818359375" y="59.5">: 助理</text></g></g><g transform="translate(-6,2) scale(1,1)"><path fill="none" stroke="#000000" d="M 269.5 80 L 269.5 568" stroke-miterlimit="10" stroke-dasharray="3"/></g><g transform="translate(-6,2) scale(1,1)"><rect fill="#C0C0C0" stroke="none" x="375" y="47" width="82.94091796875" height="39" opacity="0.2"/></g><g transform="translate(-6,2) scale(1,1)"><rect fill="#ffffd8" stroke="none" x="368" y="40" width="82.94091796875" height="39"/></g><g transform="translate(-6,2) scale(1,1)"><path fill="none" stroke="#000000" d="M 368 40 L 450.94091796875 40 L 450.94091796875 79 L 368 79 L 368 40 Z Z" stroke-miterlimit="10"/></g><g transform="translate(-6,2) scale(1,1)"><g><path fill="none" stroke="none"/><text fill="#000000" stroke="none" font-family="Arial" font-size="13px" font-style="normal" font-weight="bold" text-decoration="none" x="379.858642578125" y="59.5">: 医院系统</text></g></g><g transform="translate(-6,2) scale(1,1)"><path fill="none" stroke="#000000" d="M 410.5 80 L 410.5 568" stroke-miterlimit="10" stroke-dasharray="3"/></g><g transform="translate(-6,2) scale(1,1)"><path fill="none" stroke="#000000" d="M 184 144 L 487 144 L 487 216 L 184 216 L 184 144" stroke-miterlimit="10"/></g><g transform="translate(-6,2) scale(1,1)"><path fill="#ffffd8" stroke="none" d="M 184 144 L 184 166 L 218.07177734375 166 L 229.07177734375 155 L 229.07177734375 144 L 184 144"/></g><g transform="translate(-6,2) scale(1,1)"><path fill="none" stroke="#000000" d="M 184 144 L 184 166 L 218.07177734375 166 L 229.07177734375 155 L 229.07177734375 144 L 184 144 L 184 144" stroke-miterlimit="10"/></g><g transform="translate(-6,2) scale(1,1)"><g><path fill="none" stroke="none"/><text fill="#000000" stroke="none" font-family="Arial" font-size="13px" font-style="normal" font-weight="bold" text-decoration="none" x="189" y="161.5">opt</text></g></g><g transform="translate(-6,2) scale(1,1)"><g><path fill="none" stroke="none"/><text fill="#000000" stroke="none" font-family="Arial" font-size="13px" font-style="normal" font-weight="normal" text-decoration="none" x="203.5" y="194.5">[初诊]</text></g></g><g transform="translate(-6,2) scale(1,1)"><path fill="none" stroke="#000000" d="M 176 280 L 640 280 L 640 512 L 176 512 L 176 280" stroke-miterlimit="10"/></g><g transform="translate(-6,2) scale(1,1)"><path fill="#ffffd8" stroke="none" d="M 176 280 L 176 302 L 205.72998046875 302 L 216.72998046875 291 L 216.72998046875 280 L 176 280"/></g><g transform="translate(-6,2) scale(1,1)"><path fill="none" stroke="#000000" d="M 176 280 L 176 302 L 205.72998046875 302 L 216.72998046875 291 L 216.72998046875 280 L 176 280 L 176 280" stroke-miterlimit="10"/></g><g transform="translate(-6,2) scale(1,1)"><g><path fill="none" stroke="none"/><text fill="#000000" stroke="none" font-family="Arial" font-size="13px" font-style="normal" font-weight="bold" text-decoration="none" x="181" y="297.5">alt</text></g></g><g transform="translate(-6,2) scale(1,1)"><g><path fill="none" stroke="none"/><text fill="#000000" stroke="none" font-family="Arial" font-size="13px" font-style="normal" font-weight="normal" text-decoration="none" x="195.5" y="330.5">[满诊]</text></g></g><g transform="translate(-6,2) scale(1,1)"><path fill="none" stroke="#000000" d="M 176 346 L 640 346" stroke-miterlimit="10" stroke-dasharray="10,3"/></g><g transform="translate(-6,2) scale(1,1)"><g><path fill="none" stroke="none"/><text fill="#000000" stroke="none" font-family="Arial" font-size="13px" font-style="normal" font-weight="normal" text-decoration="none" x="195.5" y="373.5">[非满诊]</text></g></g><g transform="translate(-6,2) scale(1,1)"><rect fill="#C0C0C0" stroke="none" x="559" y="371" width="73.9326171875" height="39" opacity="0.2"/></g><g transform="translate(-6,2) scale(1,1)"><rect fill="#ffffd8" stroke="none" x="552" y="364" width="73.9326171875" height="39"/></g><g transform="translate(-6,2) scale(1,1)"><path fill="none" stroke="#000000" d="M 552 364 L 625.9326171875 364 L 625.9326171875 403 L 552 403 L 552 364 Z Z" stroke-miterlimit="10"/></g><g transform="translate(-6,2) scale(1,1)"><g><path fill="none" stroke="none"/><text fill="#000000" stroke="none" font-family="Arial" font-size="13px" font-style="normal" font-weight="bold" text-decoration="none" x="565.8544921875" y="383.5">: 预约单</text></g></g><g transform="translate(-6,2) scale(1,1)"><path fill="none" stroke="#000000" d="M 589.5 404 L 589.5 568" stroke-miterlimit="10" stroke-dasharray="3"/></g><g transform="translate(-6,2) scale(1,1)"><path fill="none" stroke="#000000" d="M 73 128 L 262 128" stroke-miterlimit="10"/></g><g transform="translate(-6,2) scale(1,1)"><path fill="#000000" stroke="none" d="M 251.83732514237585 132.209517756016 L 262 128 L 251.83732514237585 123.79048224398402"/></g><g transform="translate(-6,2) scale(1,1)"><path fill="none" stroke="#000000" d="M 251.83732514237585 132.209517756016 L 262 128 L 251.83732514237585 123.79048224398402 L 251.83732514237585 132.209517756016" stroke-miterlimit="10"/></g><g transform="translate(-6,2) scale(1,1)"><g><path fill="none" stroke="none"/><text fill="#000000" stroke="none" font-family="Arial" font-size="13px" font-style="normal" font-weight="normal" text-decoration="none" x="131.489501953125" y="124.5">1 : 预约挂号</text></g></g><g transform="translate(-6,2) scale(1,1)"><rect fill="#ffffd8" stroke="none" x="262" y="128" width="13" height="416"/></g><g transform="translate(-6,2) scale(1,1)"><path fill="none" stroke="#000000" d="M 262 128 L 275 128 L 275 544 L 262 544 L 262 128 Z Z" stroke-miterlimit="10"/></g><g transform="translate(-6,2) scale(1,1)"><path fill="none" stroke="#000000" d="M 275 176 L 403 176" stroke-miterlimit="10"/></g><g transform="translate(-6,2) scale(1,1)"><path fill="#000000" stroke="none" d="M 392.83732514237585 180.209517756016 L 403 176 L 392.83732514237585 171.790482243984"/></g><g transform="translate(-6,2) scale(1,1)"><path fill="none" stroke="#000000" d="M 392.83732514237585 180.209517756016 L 403 176 L 392.83732514237585 171.790482243984 L 392.83732514237585 180.209517756016" stroke-miterlimit="10"/></g><g transform="translate(-6,2) scale(1,1)"><g><path fill="none" stroke="none"/><text fill="#000000" stroke="none" font-family="Arial" font-size="13px" font-style="normal" font-weight="normal" text-decoration="none" x="303.489501953125" y="172.5">2 : 病患注册</text></g></g><g transform="translate(-6,2) scale(1,1)"><rect fill="#ffffd8" stroke="none" x="403" y="176" width="13" height="28"/></g><g transform="translate(-6,2) scale(1,1)"><path fill="none" stroke="#000000" d="M 403 176 L 416 176 L 416 204 L 403 204 L 403 176 Z Z" stroke-miterlimit="10"/></g><g transform="translate(-6,2) scale(1,1)"><path fill="none" stroke="#000000" d="M 275 241 L 403 241" stroke-miterlimit="10"/></g><g transform="translate(-6,2) scale(1,1)"><path fill="#000000" stroke="none" d="M 392.83732514237585 245.209517756016 L 403 241 L 392.83732514237585 236.790482243984"/></g><g transform="translate(-6,2) scale(1,1)"><path fill="none" stroke="#000000" d="M 392.83732514237585 245.209517756016 L 403 241 L 392.83732514237585 236.790482243984 L 392.83732514237585 245.209517756016" stroke-miterlimit="10"/></g><g transform="translate(-6,2) scale(1,1)"><g><path fill="none" stroke="none"/><text fill="#000000" stroke="none" font-family="Arial" font-size="13px" font-style="normal" font-weight="normal" text-decoration="none" x="297.5" y="237.5">3 : 查门诊状况</text></g></g><g transform="translate(-6,2) scale(1,1)"><rect fill="#ffffd8" stroke="none" x="403" y="241" width="13" height="28"/></g><g transform="translate(-6,2) scale(1,1)"><path fill="none" stroke="#000000" d="M 403 241 L 416 241 L 416 269 L 403 269 L 403 241 Z Z" stroke-miterlimit="10"/></g><g transform="translate(-6,2) scale(1,1)"><path fill="none" stroke="#000000" d="M 275 307 L 403 307" stroke-miterlimit="10"/></g><g transform="translate(-6,2) scale(1,1)"><path fill="#000000" stroke="none" d="M 392.83732514237585 311.209517756016 L 403 307 L 392.83732514237585 302.790482243984"/></g><g transform="translate(-6,2) scale(1,1)"><path fill="none" stroke="#000000" d="M 392.83732514237585 311.209517756016 L 403 307 L 392.83732514237585 302.790482243984 L 392.83732514237585 311.209517756016" stroke-miterlimit="10"/></g><g transform="translate(-6,2) scale(1,1)"><g><path fill="none" stroke="none"/><text fill="#000000" stroke="none" font-family="Arial" font-size="13px" font-style="normal" font-weight="normal" text-decoration="none" x="303.489501953125" y="303.5">4 : 列入候补</text></g></g><g transform="translate(-6,2) scale(1,1)"><rect fill="#ffffd8" stroke="none" x="403" y="307" width="13" height="28"/></g><g transform="translate(-6,2) scale(1,1)"><path fill="none" stroke="#000000" d="M 403 307 L 416 307 L 416 335 L 403 335 L 403 307 Z Z" stroke-miterlimit="10"/></g><g transform="translate(-6,2) scale(1,1)"><path fill="none" stroke="#000000" d="M 275 374 L 403 374" stroke-miterlimit="10"/></g><g transform="translate(-6,2) scale(1,1)"><path fill="#000000" stroke="none" d="M 392.83732514237585 378.209517756016 L 403 374 L 392.83732514237585 369.790482243984"/></g><g transform="translate(-6,2) scale(1,1)"><path fill="none" stroke="#000000" d="M 392.83732514237585 378.209517756016 L 403 374 L 392.83732514237585 369.790482243984 L 392.83732514237585 378.209517756016" stroke-miterlimit="10"/></g><g transform="translate(-6,2) scale(1,1)"><g><path fill="none" stroke="none"/><text fill="#000000" stroke="none" font-family="Arial" font-size="13px" font-style="normal" font-weight="normal" text-decoration="none" x="303.489501953125" y="370.5">5 : 预约门诊</text></g></g><g transform="translate(-6,2) scale(1,1)"><rect fill="#ffffd8" stroke="none" x="403" y="374" width="13" height="114"/></g><g transform="translate(-6,2) scale(1,1)"><path fill="none" stroke="#000000" d="M 403 374 L 416 374 L 416 488 L 403 488 L 403 374 Z Z" stroke-miterlimit="10"/></g><g transform="translate(-6,2) scale(1,1)"><path fill="none" stroke="#000000" d="M 416 384 L 552 384" stroke-miterlimit="10" stroke-dasharray="3"/></g><g transform="translate(-6,2) scale(1,1)"><path fill="none" stroke="#000000" d="M 541.8373251423759 388.209517756016 L 552 384 L 541.8373251423758 379.790482243984" stroke-miterlimit="10"/></g><g transform="translate(-6,2) scale(1,1)"><g><path fill="none" stroke="none"/><text fill="#000000" stroke="none" font-family="Arial" font-size="13px" font-style="normal" font-weight="normal" text-decoration="none" x="442.944091796875" y="380.5">6 : 建立预约单</text></g></g><g transform="translate(-6,2) scale(1,1)"><g><path fill="none" stroke="none"/><text fill="#000000" stroke="none" font-family="Arial" font-size="13px" font-style="normal" font-weight="normal" text-decoration="none" x="458.5" y="365.5">«create»</text></g></g><g transform="translate(-6,2) scale(1,1)"><path fill="none" stroke="#000000" d="M 416 443 L 582 443" stroke-miterlimit="10"/></g><g transform="translate(-6,2) scale(1,1)"><path fill="#000000" stroke="none" d="M 571.8373251423759 447.209517756016 L 582 443 L 571.8373251423758 438.790482243984"/></g><g transform="translate(-6,2) scale(1,1)"><path fill="none" stroke="#000000" d="M 571.8373251423759 447.209517756016 L 582 443 L 571.8373251423758 438.790482243984 L 571.8373251423759 447.209517756016" stroke-miterlimit="10"/></g><g transform="translate(-6,2) scale(1,1)"><g><path fill="none" stroke="none"/><text fill="#000000" stroke="none" font-family="Arial" font-size="13px" font-style="normal" font-weight="normal" text-decoration="none" x="430.5" y="439.5">7 : 预约作业(病患, 医生)</text></g></g><g transform="translate(-6,2) scale(1,1)"><rect fill="#ffffd8" stroke="none" x="582" y="443" width="13" height="28"/></g><g transform="translate(-6,2) scale(1,1)"><path fill="none" stroke="#000000" d="M 582 443 L 595 443 L 595 471 L 582 471 L 582 443 Z Z" stroke-miterlimit="10"/></g><g transform="translate(-6,2) scale(1,1)"><path fill="none" stroke="#000000" d="M 582 467 L 416 467" stroke-miterlimit="10" stroke-dasharray="3"/></g><g transform="translate(-6,2) scale(1,1)"><path fill="none" stroke="#000000" d="M 426.16267485762415 462.790482243984 L 416 467 L 426.16267485762415 471.209517756016" stroke-miterlimit="10"/></g><g transform="translate(-6,2) scale(1,1)"><g><path fill="none" stroke="none"/><text fill="#000000" stroke="none" font-family="Arial" font-size="13px" font-style="normal" font-weight="normal" text-decoration="none" x="462.5" y="483.5">8 : 预约序号</text></g></g><g transform="translate(-6,2) scale(1,1)"><path fill="none" stroke="#000000" d="M 403 483 L 275 483" stroke-miterlimit="10" stroke-dasharray="3"/></g><g transform="translate(-6,2) scale(1,1)"><path fill="none" stroke="#000000" d="M 285.16267485762415 478.790482243984 L 275 483 L 285.16267485762415 487.209517756016" stroke-miterlimit="10"/></g><g transform="translate(-6,2) scale(1,1)"><g><path fill="none" stroke="none"/><text fill="#000000" stroke="none" font-family="Arial" font-size="13px" font-style="normal" font-weight="normal" text-decoration="none" x="302.5" y="499.5">9 : 预约序号</text></g></g><g transform="translate(-6,2) scale(1,1)"><path fill="none" stroke="#000000" d="M 262 538 L 73 538" stroke-miterlimit="10" stroke-dasharray="3"/></g><g transform="translate(-6,2) scale(1,1)"><path fill="none" stroke="#000000" d="M 83.16267485762415 533.790482243984 L 73 538 L 83.16267485762415 542.209517756016" stroke-miterlimit="10"/></g><g transform="translate(-6,2) scale(1,1)"><g><path fill="none" stroke="none"/><text fill="#000000" stroke="none" font-family="Arial" font-size="13px" font-style="normal" font-weight="normal" text-decoration="none" x="127.5" y="554.5">10 : 预约序号</text></g></g></g></svg>